<mxfile host="www.draw.io" modified="2019-10-31T01:40:08.044Z" agent="Mozilla/5.0 (Windows NT 6.1; Win64; x64) AppleWebKit/537.36 (KHTML, like Gecko) Chrome/77.0.3865.90 Safari/537.36" etag="xLXYmaF6hECCrPwQiQPH" version="12.1.9" type="github" pages="1">
  <diagram id="PCaGFZHdbRmj5NxrfVOr" name="Page-1">
    <mxGraphModel dx="1408" dy="748" grid="1" gridSize="10" guides="1" tooltips="1" connect="1" arrows="1" fold="1" page="1" pageScale="1" pageWidth="827" pageHeight="1169" math="0" shadow="0">
      <root>
        <mxCell id="0"/>
        <mxCell id="1" parent="0"/>
        <mxCell id="WNi-3iqroO-ERv6YyDIw-3" value="" style="edgeStyle=orthogonalEdgeStyle;rounded=0;orthogonalLoop=1;jettySize=auto;html=1;" edge="1" parent="1" source="WNi-3iqroO-ERv6YyDIw-1" target="WNi-3iqroO-ERv6YyDIw-2">
          <mxGeometry relative="1" as="geometry"/>
        </mxCell>
        <mxCell id="WNi-3iqroO-ERv6YyDIw-1" value="document" style="rounded=1;whiteSpace=wrap;html=1;" vertex="1" parent="1">
          <mxGeometry x="293" y="60" width="120" height="60" as="geometry"/>
        </mxCell>
        <mxCell id="WNi-3iqroO-ERv6YyDIw-5" value="" style="edgeStyle=orthogonalEdgeStyle;rounded=0;orthogonalLoop=1;jettySize=auto;html=1;" edge="1" parent="1" source="WNi-3iqroO-ERv6YyDIw-2" target="WNi-3iqroO-ERv6YyDIw-4">
          <mxGeometry relative="1" as="geometry">
            <Array as="points">
              <mxPoint x="353" y="350"/>
              <mxPoint x="150" y="350"/>
            </Array>
          </mxGeometry>
        </mxCell>
        <mxCell id="WNi-3iqroO-ERv6YyDIw-7" value="" style="edgeStyle=orthogonalEdgeStyle;rounded=0;orthogonalLoop=1;jettySize=auto;html=1;" edge="1" parent="1" source="WNi-3iqroO-ERv6YyDIw-2" target="WNi-3iqroO-ERv6YyDIw-6">
          <mxGeometry relative="1" as="geometry">
            <Array as="points">
              <mxPoint x="353" y="350"/>
              <mxPoint x="570" y="350"/>
            </Array>
          </mxGeometry>
        </mxCell>
        <mxCell id="WNi-3iqroO-ERv6YyDIw-2" value="html" style="rounded=1;whiteSpace=wrap;html=1;" vertex="1" parent="1">
          <mxGeometry x="293" y="200" width="120" height="60" as="geometry"/>
        </mxCell>
        <mxCell id="WNi-3iqroO-ERv6YyDIw-11" value="" style="edgeStyle=orthogonalEdgeStyle;rounded=0;orthogonalLoop=1;jettySize=auto;html=1;" edge="1" parent="1" source="WNi-3iqroO-ERv6YyDIw-6" target="WNi-3iqroO-ERv6YyDIw-10">
          <mxGeometry relative="1" as="geometry"/>
        </mxCell>
        <mxCell id="WNi-3iqroO-ERv6YyDIw-13" value="" style="edgeStyle=orthogonalEdgeStyle;rounded=0;orthogonalLoop=1;jettySize=auto;html=1;" edge="1" parent="1" source="WNi-3iqroO-ERv6YyDIw-6" target="WNi-3iqroO-ERv6YyDIw-12">
          <mxGeometry relative="1" as="geometry">
            <Array as="points">
              <mxPoint x="570" y="550"/>
              <mxPoint x="740" y="550"/>
            </Array>
          </mxGeometry>
        </mxCell>
        <mxCell id="WNi-3iqroO-ERv6YyDIw-6" value="body&lt;br&gt;" style="rounded=1;whiteSpace=wrap;html=1;" vertex="1" parent="1">
          <mxGeometry x="510" y="460" width="120" height="60" as="geometry"/>
        </mxCell>
        <mxCell id="WNi-3iqroO-ERv6YyDIw-12" value="h1" style="rounded=1;whiteSpace=wrap;html=1;" vertex="1" parent="1">
          <mxGeometry x="680" y="594" width="120" height="60" as="geometry"/>
        </mxCell>
        <mxCell id="WNi-3iqroO-ERv6YyDIw-10" value="a" style="rounded=1;whiteSpace=wrap;html=1;" vertex="1" parent="1">
          <mxGeometry x="390" y="584" width="120" height="70" as="geometry"/>
        </mxCell>
        <mxCell id="WNi-3iqroO-ERv6YyDIw-9" value="" style="edgeStyle=orthogonalEdgeStyle;rounded=0;orthogonalLoop=1;jettySize=auto;html=1;" edge="1" parent="1" source="WNi-3iqroO-ERv6YyDIw-4" target="WNi-3iqroO-ERv6YyDIw-8">
          <mxGeometry relative="1" as="geometry"/>
        </mxCell>
        <mxCell id="WNi-3iqroO-ERv6YyDIw-4" value="head" style="rounded=1;whiteSpace=wrap;html=1;" vertex="1" parent="1">
          <mxGeometry x="90" y="460" width="120" height="60" as="geometry"/>
        </mxCell>
        <mxCell id="WNi-3iqroO-ERv6YyDIw-8" value="title" style="rounded=1;whiteSpace=wrap;html=1;" vertex="1" parent="1">
          <mxGeometry x="90" y="600" width="120" height="60" as="geometry"/>
        </mxCell>
      </root>
    </mxGraphModel>
  </diagram>
</mxfile>
